<?xml version="1.0" encoding="iso-8859-1"?>
<!-- Generator: Adobe Illustrator 18.0.0, SVG Export Plug-In . SVG Version: 6.00 Build 0)  -->
<!DOCTYPE svg PUBLIC "-//W3C//DTD SVG 1.1//EN" "http://www.w3.org/Graphics/SVG/1.1/DTD/svg11.dtd">
<svg version="1.1" id="Capa_1" xmlns="http://www.w3.org/2000/svg" xmlns:xlink="http://www.w3.org/1999/xlink" x="0px" y="0px"
	 viewBox="0 0 60 60" style="enable-background:new 0 0 60 60;" xml:space="preserve">
<g>
	<path d="M52.424,46.336c-0.429-4.107-3.852-7.332-7.953-7.332c-2.564,0-4.984,1.286-6.48,3.402
		c-0.291-0.051-0.586-0.076-0.883-0.076c-2.32,0-4.381,1.577-5.066,3.813c-1.907,1.131-3.116,3.241-3.116,5.502
		c0,3.507,2.785,6.359,6.208,6.359h10.774c0.06,0,0.118-0.004,0.171-0.008c0.062,0.004,0.124,0.008,0.188,0.008h4.31
		c3.225,0,5.849-2.687,5.849-5.989C56.425,49.415,54.783,47.142,52.424,46.336z M50.576,56.004l-4.352-0.003l-0.17-0.006
		l-10.922,0.009c-2.32,0-4.208-1.956-4.208-4.359c0-1.665,0.949-3.21,2.417-3.935l0.435-0.214l0.102-0.475
		c0.331-1.56,1.689-2.691,3.229-2.691c0.345,0,0.688,0.057,1.02,0.168l0.777,0.261l0.408-0.711c1.096-1.906,3.024-3.044,5.158-3.044
		c3.265,0,5.955,2.747,5.998,6.123l0.011,0.813l0.799,0.155c1.823,0.354,3.146,2.002,3.146,3.919
		C54.425,54.214,52.698,56.004,50.576,56.004z"/>
	<circle cx="20.575" cy="53" r="2"/>
	<path d="M25.925,51.645c0-2.057,0.691-4.032,1.898-5.645H5.575V8h30v31c0.562,0,0.709,0.021,1.071,0c0.47,0,0.408,0,0.929,0V4.405
		C37.575,1.977,35.599,0,33.17,0H7.98C5.551,0,3.575,1.977,3.575,4.405v51.189C3.575,58.023,5.551,60,7.98,60h23.027
		C27.998,58.458,25.925,55.297,25.925,51.645z M23.575,3h1c0.552,0,1,0.447,1,1s-0.448,1-1,1h-1c-0.552,0-1-0.447-1-1
		S23.023,3,23.575,3z M16.575,3h4c0.552,0,1,0.447,1,1s-0.448,1-1,1h-4c-0.552,0-1-0.447-1-1S16.023,3,16.575,3z M20.575,57
		c-2.206,0-4-1.794-4-4s1.794-4,4-4s4,1.794,4,4S22.781,57,20.575,57z"/>
</g>
<g>
</g>
<g>
</g>
<g>
</g>
<g>
</g>
<g>
</g>
<g>
</g>
<g>
</g>
<g>
</g>
<g>
</g>
<g>
</g>
<g>
</g>
<g>
</g>
<g>
</g>
<g>
</g>
<g>
</g>
</svg>
